<svg width="68" height="50" viewBox="0 0 68 50" fill="none" xmlns="http://www.w3.org/2000/svg">
<path d="M19.748 0.647999V18H16.904V6.792C16.904 6.344 16.928 5.86 16.976 5.34L11.732 15.192C11.484 15.664 11.104 15.9 10.592 15.9H10.136C9.624 15.9 9.244 15.664 8.996 15.192L3.692 5.304C3.716 5.568 3.736 5.828 3.752 6.084C3.768 6.34 3.776 6.576 3.776 6.792V18H0.932V0.647999H3.368C3.512 0.647999 3.636 0.651999 3.74 0.659999C3.844 0.667999 3.936 0.687999 4.016 0.719999C4.104 0.751999 4.18 0.803999 4.244 0.875999C4.316 0.947999 4.384 1.044 4.448 1.164L9.644 10.8C9.78 11.056 9.904 11.32 10.016 11.592C10.136 11.864 10.252 12.144 10.364 12.432C10.476 12.136 10.592 11.852 10.712 11.58C10.832 11.3 10.96 11.032 11.096 10.776L16.22 1.164C16.284 1.044 16.352 0.947999 16.424 0.875999C16.496 0.803999 16.572 0.751999 16.652 0.719999C16.74 0.687999 16.836 0.667999 16.94 0.659999C17.044 0.651999 17.168 0.647999 17.312 0.647999H19.748ZM31.2715 11.28V18H28.0555V11.28L21.7315 0.647999H24.5755C24.8555 0.647999 25.0755 0.715999 25.2355 0.852C25.4035 0.987999 25.5435 1.16 25.6555 1.368L28.8235 7.164C29.0075 7.508 29.1675 7.832 29.3035 8.136C29.4475 8.44 29.5755 8.744 29.6875 9.048C29.7915 8.744 29.9115 8.44 30.0475 8.136C30.1835 7.832 30.3395 7.508 30.5155 7.164L33.6715 1.368C33.7595 1.192 33.8915 1.028 34.0675 0.875999C34.2435 0.723999 34.4675 0.647999 34.7395 0.647999H37.5955L31.2715 11.28ZM19.748 32.648V50H16.904V38.792C16.904 38.344 16.928 37.86 16.976 37.34L11.732 47.192C11.484 47.664 11.104 47.9 10.592 47.9H10.136C9.624 47.9 9.244 47.664 8.996 47.192L3.692 37.304C3.716 37.568 3.736 37.828 3.752 38.084C3.768 38.34 3.776 38.576 3.776 38.792V50H0.932V32.648H3.368C3.512 32.648 3.636 32.652 3.74 32.66C3.844 32.668 3.936 32.688 4.016 32.72C4.104 32.752 4.18 32.804 4.244 32.876C4.316 32.948 4.384 33.044 4.448 33.164L9.644 42.8C9.78 43.056 9.904 43.32 10.016 43.592C10.136 43.864 10.252 44.144 10.364 44.432C10.476 44.136 10.592 43.852 10.712 43.58C10.832 43.3 10.96 43.032 11.096 42.776L16.22 33.164C16.284 33.044 16.352 32.948 16.424 32.876C16.496 32.804 16.572 32.752 16.652 32.72C16.74 32.688 16.836 32.668 16.94 32.66C17.044 32.652 17.168 32.648 17.312 32.648H19.748ZM32.9875 43.448L30.8755 37.676C30.7715 37.42 30.6635 37.116 30.5515 36.764C30.4395 36.412 30.3275 36.032 30.2155 35.624C30.1115 36.032 30.0035 36.416 29.8915 36.776C29.7795 37.128 29.6715 37.436 29.5675 37.7L27.4675 43.448H32.9875ZM38.6875 50H36.1915C35.9115 50 35.6835 49.932 35.5075 49.796C35.3315 49.652 35.1995 49.476 35.1115 49.268L33.8155 45.728H26.6275L25.3315 49.268C25.2675 49.452 25.1435 49.62 24.9595 49.772C24.7755 49.924 24.5475 50 24.2755 50H21.7555L28.5835 32.648H31.8715L38.6875 50ZM45.9276 40.904C46.5356 40.904 47.0636 40.828 47.5116 40.676C47.9676 40.524 48.3396 40.316 48.6276 40.052C48.9236 39.78 49.1436 39.46 49.2876 39.092C49.4316 38.724 49.5036 38.32 49.5036 37.88C49.5036 37 49.2116 36.324 48.6276 35.852C48.0516 35.38 47.1676 35.144 45.9756 35.144H43.9116V40.904H45.9276ZM54.2316 50H51.3156C50.7636 50 50.3636 49.784 50.1156 49.352L46.4676 43.796C46.3316 43.588 46.1796 43.44 46.0116 43.352C45.8516 43.264 45.6116 43.22 45.2916 43.22H43.9116V50H40.6836V32.648H45.9756C47.1516 32.648 48.1596 32.772 48.9996 33.02C49.8476 33.26 50.5396 33.6 51.0756 34.04C51.6196 34.48 52.0196 35.008 52.2756 35.624C52.5316 36.232 52.6596 36.904 52.6596 37.64C52.6596 38.224 52.5716 38.776 52.3956 39.296C52.2276 39.816 51.9796 40.288 51.6516 40.712C51.3316 41.136 50.9316 41.508 50.4516 41.828C49.9796 42.148 49.4396 42.4 48.8316 42.584C49.0396 42.704 49.2316 42.848 49.4076 43.016C49.5836 43.176 49.7436 43.368 49.8876 43.592L54.2316 50ZM67.9801 35.3H62.7481V50H59.5201V35.3H54.2881V32.648H67.9801V35.3Z" fill="#53B175"/>
</svg>
