<?xml version="1.0" encoding="UTF-8"?>
<svg xmlns="http://www.w3.org/2000/svg" id="Layer_3" data-name="Layer 3" viewBox="0 0 64 64" width="512" height="512"><path d="M57,29H53.462L40.29,13.5a9,9,0,1,0-16.58,0L10.538,29H7a6.006,6.006,0,0,0-6,6V57a6.006,6.006,0,0,0,6,6H57a6.006,6.006,0,0,0,6-6V35A6.006,6.006,0,0,0,57,29ZM25,10a7,7,0,1,1,13.777,1.723l-1.819-2.14a4.973,4.973,0,0,0-9.916,0l-1.819,2.14A7,7,0,0,1,25,10Zm2.5,2.135a4.971,4.971,0,0,0,9.006,0l1.387,1.632a6.982,6.982,0,0,1-11.78,0ZM29,10a3,3,0,1,1,3,3A3,3,0,0,1,29,10Zm-4.227,5.341a8.967,8.967,0,0,0,14.454,0L50.838,29H13.162ZM61,57a4,4,0,0,1-4,4H7a4,4,0,0,1-4-4V35a4,4,0,0,1,4-4H57a4,4,0,0,1,4,4Z"/><path d="M56,33H8a3,3,0,0,0-3,3V56a3,3,0,0,0,3,3H56a3,3,0,0,0,3-3V36A3,3,0,0,0,56,33Zm1,23a1,1,0,0,1-1,1H8a1,1,0,0,1-1-1V36a1,1,0,0,1,1-1H56a1,1,0,0,1,1,1Z"/><path d="M15,39H10a1,1,0,0,0-1,1V52a1,1,0,0,0,1,1h5a1,1,0,0,0,1-1V48H14v3H11V41h3v3h2V40A1,1,0,0,0,15,39Z"/><path d="M19,39H17V52a1,1,0,0,0,1,1h5V51H19Z"/><path d="M29,39H27a3,3,0,0,0-3,3v8a3,3,0,0,0,3,3h2a3,3,0,0,0,3-3V42A3,3,0,0,0,29,39Zm1,11a1,1,0,0,1-1,1H27a1,1,0,0,1-1-1V42a1,1,0,0,1,1-1h2a1,1,0,0,1,1,1Z"/><path d="M39,39H34a1,1,0,0,0-1,1v6a1,1,0,0,0,1,1h4v4H35V49H33v3a1,1,0,0,0,1,1h5a1,1,0,0,0,1-1V46a1,1,0,0,0-1-1H35V41h3v2h2V40A1,1,0,0,0,39,39Z"/><path d="M41,40V52a1,1,0,0,0,1,1h5V51H43V47h4V45H43V41h4V39H42A1,1,0,0,0,41,40Z"/><path d="M52,39H49a1,1,0,0,0-1,1V52a1,1,0,0,0,1,1h3a3,3,0,0,0,3-3V42A3,3,0,0,0,52,39Zm1,11a1,1,0,0,1-1,1H50V41h2a1,1,0,0,1,1,1Z"/></svg>
