<svg width="43" height="40" viewBox="0 0 43 40" fill="none" xmlns="http://www.w3.org/2000/svg">
<path fill-rule="evenodd" clip-rule="evenodd" d="M2.11532 0.0219753L1.89975 0.000755769C1.11523 -0.0262365 0.410722 0.495922 0.27312 1.24419L0.250574 1.44708C0.221895 2.18545 0.776688 2.84852 1.57172 2.97803L4.77836 3.5L6.72173 25.2915L6.76195 25.619C7.15295 28.1039 9.42383 29.972 12.1285 29.972H35.3165L35.6658 29.9615C38.208 29.8087 40.3158 27.9993 40.6868 25.5956L42.7036 12.4788L42.7384 12.1775C42.924 9.77939 40.9054 7.698 38.3064 7.698H8.35048L7.85169 2.09454L7.8141 1.87283C7.66865 1.29619 7.17059 0.845458 6.53532 0.741975L2.11532 0.0219753ZM11.8822 26.9594C10.8297 26.8509 9.98803 26.0555 9.89814 25.0413L8.61825 10.698H38.3064L38.4937 10.711C39.1647 10.8048 39.6494 11.3954 39.5489 12.0493L37.5323 25.1652L37.4817 25.3997C37.226 26.3168 36.3432 26.972 35.3165 26.972H12.1285L11.8822 26.9594ZM8.5551 36.1706C8.5551 34.4984 9.99516 33.1406 11.7724 33.1406C13.5493 33.1406 14.9917 34.4982 14.9917 36.1706C14.9917 37.8433 13.5491 39.1986 11.7724 39.1986C9.9954 39.1986 8.5551 37.843 8.5551 36.1706ZM32.4643 36.1706C32.4643 34.4982 33.9068 33.1406 35.6837 33.1406C37.4607 33.1406 38.9031 34.4982 38.9031 36.1706C38.9031 37.8433 37.4604 39.1986 35.6837 39.1986C33.907 39.1986 32.4643 37.8433 32.4643 36.1706ZM33.5028 16.59C33.5028 15.7616 32.7893 15.09 31.9091 15.09H26.0164L25.8002 15.1037C25.0223 15.203 24.4227 15.8306 24.4227 16.59C24.4227 17.4184 25.1362 18.09 26.0164 18.09H31.9091L32.1253 18.0763C32.9032 17.977 33.5028 17.3494 33.5028 16.59Z" fill="#200E32"/>
</svg>
