<svg width="111" height="18" viewBox="0 0 111 18" fill="none" xmlns="http://www.w3.org/2000/svg">
<path d="M18.8199 0.647999V18H15.9759V6.792C15.9759 6.344 15.9999 5.86 16.0479 5.34L10.8039 15.192C10.5559 15.664 10.1759 15.9 9.66387 15.9H9.20788C8.69587 15.9 8.31588 15.664 8.06788 15.192L2.76388 5.304C2.78787 5.568 2.80787 5.828 2.82387 6.084C2.83987 6.34 2.84787 6.576 2.84787 6.792V18H0.00387478V0.647999H2.43987C2.58387 0.647999 2.70787 0.651999 2.81187 0.659999C2.91587 0.667999 3.00787 0.687999 3.08787 0.719999C3.17587 0.751999 3.25187 0.803999 3.31587 0.875999C3.38787 0.947999 3.45587 1.044 3.51987 1.164L8.71587 10.8C8.85188 11.056 8.97588 11.32 9.08788 11.592C9.20788 11.864 9.32387 12.144 9.43587 12.432C9.54787 12.136 9.66388 11.852 9.78388 11.58C9.90388 11.3 10.0319 11.032 10.1679 10.776L15.2919 1.164C15.3559 1.044 15.4239 0.947999 15.4959 0.875999C15.5679 0.803999 15.6439 0.751999 15.7239 0.719999C15.8119 0.687999 15.9079 0.667999 16.0119 0.659999C16.1159 0.651999 16.2399 0.647999 16.3839 0.647999H18.8199ZM30.3434 11.28V18H27.1274V11.28L20.8034 0.647999H23.6474C23.9274 0.647999 24.1474 0.715999 24.3074 0.852C24.4754 0.987999 24.6154 1.16 24.7274 1.368L27.8954 7.164C28.0794 7.508 28.2394 7.832 28.3754 8.136C28.5194 8.44 28.6474 8.744 28.7594 9.048C28.8634 8.744 28.9834 8.44 29.1194 8.136C29.2554 7.832 29.4114 7.508 29.5874 7.164L32.7434 1.368C32.8314 1.192 32.9634 1.028 33.1394 0.875999C33.3154 0.723999 33.5394 0.647999 33.8114 0.647999H36.6674L30.3434 11.28ZM62.5214 0.647999V18H59.6774V6.792C59.6774 6.344 59.7014 5.86 59.7494 5.34L54.5054 15.192C54.2574 15.664 53.8774 15.9 53.3654 15.9H52.9094C52.3974 15.9 52.0174 15.664 51.7694 15.192L46.4654 5.304C46.4894 5.568 46.5094 5.828 46.5254 6.084C46.5414 6.34 46.5494 6.576 46.5494 6.792V18H43.7054V0.647999H46.1414C46.2854 0.647999 46.4094 0.651999 46.5134 0.659999C46.6174 0.667999 46.7094 0.687999 46.7894 0.719999C46.8774 0.751999 46.9534 0.803999 47.0174 0.875999C47.0894 0.947999 47.1574 1.044 47.2214 1.164L52.4174 10.8C52.5534 11.056 52.6774 11.32 52.7894 11.592C52.9094 11.864 53.0254 12.144 53.1374 12.432C53.2494 12.136 53.3654 11.852 53.4854 11.58C53.6054 11.3 53.7334 11.032 53.8694 10.776L58.9934 1.164C59.0574 1.044 59.1254 0.947999 59.1974 0.875999C59.2694 0.803999 59.3454 0.751999 59.4254 0.719999C59.5134 0.687999 59.6094 0.667999 59.7134 0.659999C59.8174 0.651999 59.9414 0.647999 60.0854 0.647999H62.5214ZM75.7609 11.448L73.6489 5.676C73.5449 5.42 73.4369 5.116 73.3249 4.764C73.2129 4.412 73.1009 4.032 72.9889 3.624C72.8849 4.032 72.7769 4.416 72.6649 4.776C72.5529 5.128 72.4449 5.436 72.3409 5.7L70.2409 11.448H75.7609ZM81.4609 18H78.9649C78.6849 18 78.4569 17.932 78.2809 17.796C78.1049 17.652 77.9729 17.476 77.8849 17.268L76.5889 13.728H69.4009L68.1049 17.268C68.0409 17.452 67.9169 17.62 67.7329 17.772C67.5489 17.924 67.3209 18 67.0489 18H64.5289L71.3569 0.647999H74.6449L81.4609 18ZM88.701 8.904C89.309 8.904 89.837 8.828 90.285 8.676C90.741 8.524 91.113 8.316 91.401 8.052C91.697 7.78 91.917 7.46 92.061 7.092C92.205 6.724 92.277 6.32 92.277 5.88C92.277 5 91.985 4.324 91.401 3.852C90.825 3.38 89.941 3.144 88.749 3.144H86.685V8.904H88.701ZM97.005 18H94.089C93.537 18 93.137 17.784 92.889 17.352L89.241 11.796C89.105 11.588 88.953 11.44 88.785 11.352C88.625 11.264 88.385 11.22 88.065 11.22H86.685V18H83.457V0.647999H88.749C89.925 0.647999 90.933 0.771999 91.773 1.02C92.621 1.26 93.313 1.6 93.849 2.04C94.393 2.48 94.793 3.008 95.049 3.624C95.305 4.232 95.433 4.904 95.433 5.64C95.433 6.224 95.345 6.776 95.169 7.296C95.001 7.816 94.753 8.288 94.425 8.712C94.105 9.136 93.705 9.508 93.225 9.828C92.753 10.148 92.213 10.4 91.605 10.584C91.813 10.704 92.005 10.848 92.181 11.016C92.357 11.176 92.517 11.368 92.661 11.592L97.005 18ZM110.754 3.3H105.522V18H102.294V3.3H97.0616V0.647999H110.754V3.3Z" fill="#53B175"/>
</svg>
