<svg width="68" height="50" viewBox="0 0 68 50" fill="none" xmlns="http://www.w3.org/2000/svg">
<path d="M31.8199 0.647999V18H28.9759V6.792C28.9759 6.344 28.9999 5.86 29.0479 5.34L23.8039 15.192C23.5559 15.664 23.1759 15.9 22.6639 15.9H22.2079C21.6959 15.9 21.3159 15.664 21.0679 15.192L15.7639 5.304C15.7879 5.568 15.8079 5.828 15.8239 6.084C15.8399 6.34 15.8479 6.576 15.8479 6.792V18H13.0039V0.647999H15.4399C15.5839 0.647999 15.7079 0.651999 15.8119 0.659999C15.9159 0.667999 16.0079 0.687999 16.0879 0.719999C16.1759 0.751999 16.2519 0.803999 16.3159 0.875999C16.3879 0.947999 16.4559 1.044 16.5199 1.164L21.7159 10.8C21.8519 11.056 21.9759 11.32 22.0879 11.592C22.2079 11.864 22.3239 12.144 22.4359 12.432C22.5479 12.136 22.6639 11.852 22.7839 11.58C22.9039 11.3 23.0319 11.032 23.1679 10.776L28.2919 1.164C28.3559 1.044 28.4239 0.947999 28.4959 0.875999C28.5679 0.803999 28.6439 0.751999 28.7239 0.719999C28.8119 0.687999 28.9079 0.667999 29.0119 0.659999C29.1159 0.651999 29.2399 0.647999 29.3839 0.647999H31.8199ZM43.3434 11.28V18H40.1274V11.28L33.8034 0.647999H36.6474C36.9274 0.647999 37.1474 0.715999 37.3074 0.852C37.4754 0.987999 37.6154 1.16 37.7274 1.368L40.8954 7.164C41.0794 7.508 41.2394 7.832 41.3754 8.136C41.5194 8.44 41.6474 8.744 41.7594 9.048C41.8634 8.744 41.9834 8.44 42.1194 8.136C42.2554 7.832 42.4114 7.508 42.5874 7.164L45.7434 1.368C45.8314 1.192 45.9634 1.028 46.1394 0.875999C46.3154 0.723999 46.5394 0.647999 46.8114 0.647999H49.6674L43.3434 11.28ZM19.748 32.648V50H16.904V38.792C16.904 38.344 16.928 37.86 16.976 37.34L11.732 47.192C11.484 47.664 11.104 47.9 10.592 47.9H10.136C9.624 47.9 9.244 47.664 8.996 47.192L3.692 37.304C3.716 37.568 3.736 37.828 3.752 38.084C3.768 38.34 3.776 38.576 3.776 38.792V50H0.932V32.648H3.368C3.512 32.648 3.636 32.652 3.74 32.66C3.844 32.668 3.936 32.688 4.016 32.72C4.104 32.752 4.18 32.804 4.244 32.876C4.316 32.948 4.384 33.044 4.448 33.164L9.644 42.8C9.78 43.056 9.904 43.32 10.016 43.592C10.136 43.864 10.252 44.144 10.364 44.432C10.476 44.136 10.592 43.852 10.712 43.58C10.832 43.3 10.96 43.032 11.096 42.776L16.22 33.164C16.284 33.044 16.352 32.948 16.424 32.876C16.496 32.804 16.572 32.752 16.652 32.72C16.74 32.688 16.836 32.668 16.94 32.66C17.044 32.652 17.168 32.648 17.312 32.648H19.748ZM32.9875 43.448L30.8755 37.676C30.7715 37.42 30.6635 37.116 30.5515 36.764C30.4395 36.412 30.3275 36.032 30.2155 35.624C30.1115 36.032 30.0035 36.416 29.8915 36.776C29.7795 37.128 29.6715 37.436 29.5675 37.7L27.4675 43.448H32.9875ZM38.6875 50H36.1915C35.9115 50 35.6835 49.932 35.5075 49.796C35.3315 49.652 35.1995 49.476 35.1115 49.268L33.8155 45.728H26.6275L25.3315 49.268C25.2675 49.452 25.1435 49.62 24.9595 49.772C24.7755 49.924 24.5475 50 24.2755 50H21.7555L28.5835 32.648H31.8715L38.6875 50ZM45.9276 40.904C46.5356 40.904 47.0636 40.828 47.5116 40.676C47.9676 40.524 48.3396 40.316 48.6276 40.052C48.9236 39.78 49.1436 39.46 49.2876 39.092C49.4316 38.724 49.5036 38.32 49.5036 37.88C49.5036 37 49.2116 36.324 48.6276 35.852C48.0516 35.38 47.1676 35.144 45.9756 35.144H43.9116V40.904H45.9276ZM54.2316 50H51.3156C50.7636 50 50.3636 49.784 50.1156 49.352L46.4676 43.796C46.3316 43.588 46.1796 43.44 46.0116 43.352C45.8516 43.264 45.6116 43.22 45.2916 43.22H43.9116V50H40.6836V32.648H45.9756C47.1516 32.648 48.1596 32.772 48.9996 33.02C49.8476 33.26 50.5396 33.6 51.0756 34.04C51.6196 34.48 52.0196 35.008 52.2756 35.624C52.5316 36.232 52.6596 36.904 52.6596 37.64C52.6596 38.224 52.5716 38.776 52.3956 39.296C52.2276 39.816 51.9796 40.288 51.6516 40.712C51.3316 41.136 50.9316 41.508 50.4516 41.828C49.9796 42.148 49.4396 42.4 48.8316 42.584C49.0396 42.704 49.2316 42.848 49.4076 43.016C49.5836 43.176 49.7436 43.368 49.8876 43.592L54.2316 50ZM67.9801 35.3H62.7481V50H59.5201V35.3H54.2881V32.648H67.9801V35.3Z" fill="#53B175"/>
</svg>
